HIERARCHY
ROOT Hips
{
    OFFSET 0.000000 0.000000 0.000000
    CHANNELS 6 Xposition Yposition Zposition Zrotation Xrotation Yrotation
    JOINT Spine
    {
        OFFSET -0.000000 6.993131 0.000000
        CHANNELS 3 Zrotation Xrotation Yrotation
        JOINT Spine1
        {
            OFFSET -0.000000 20.649729 0.000000
            CHANNELS 3 Zrotation Xrotation Yrotation
            JOINT Neck
            {
                OFFSET -0.000000 20.564924 1.869539
                CHANNELS 3 Zrotation Xrotation Yrotation
                JOINT Head
                {
                    OFFSET -0.000000 11.939490 -1.705642
                    CHANNELS 3 Zrotation Xrotation Yrotation
                    End Site
                    {
                        OFFSET -0.000000 21.320518 0.000000
                    }
                }
            }
            JOINT LeftShoulder
            {
                OFFSET 3.446977 19.850397 -0.038759
                CHANNELS 3 Zrotation Xrotation Yrotation
                JOINT LeftArm
                {
                    OFFSET 7.083611 0.000000 0.000000
                    CHANNELS 3 Zrotation Xrotation Yrotation
                    JOINT LeftForeArm
                    {
                        OFFSET 32.044487 0.000000 0.000000
                        CHANNELS 3 Zrotation Xrotation Yrotation
                        JOINT LeftHand
                        {
                            OFFSET 22.068741 0.000000 0.000000
                            CHANNELS 3 Zrotation Xrotation Yrotation
                            End Site
                            {
                                OFFSET 12.792312 0.000000 0.000000
                            }
                        }
                    }
                }
            }
            JOINT RightShoulder
            {
                OFFSET -3.365844 19.850397 -0.038759
                CHANNELS 3 Zrotation Xrotation Yrotation
                JOINT RightArm
                {
                    OFFSET -7.083611 0.000000 0.000000
                    CHANNELS 3 Zrotation Xrotation Yrotation
                    JOINT RightForeArm
                    {
                        OFFSET -32.044487 0.000000 0.000000
                        CHANNELS 3 Zrotation Xrotation Yrotation
                        JOINT RightHand
                        {
                            OFFSET -22.068741 0.000000 0.000000
                            CHANNELS 3 Zrotation Xrotation Yrotation
                            End Site
                            {
                                OFFSET -12.792312 0.000000 0.000000
                            }
                        }
                    }
                }
            }
        }
    }
    JOINT LeftUpLeg
    {
        OFFSET 8.528208 0.000000 0.000000
        CHANNELS 3 Zrotation Xrotation Yrotation
        JOINT LeftLeg
        {
            OFFSET -0.000000 -31.874865 0.000000
            CHANNELS 3 Zrotation Xrotation Yrotation
            JOINT LeftFoot
            {
                OFFSET -0.000000 -38.221939 0.000000
                CHANNELS 3 Zrotation Xrotation Yrotation
                JOINT LeftToeBase
                {
                    OFFSET -0.000000 -5.543335 12.792312
                    CHANNELS 3 Zrotation Xrotation Yrotation
                    End Site
                    {
                        OFFSET -0.000000 0.000000 3.411283
                    }
                }
            }
        }
    }
    JOINT RightUpLeg
    {
        OFFSET -8.528208 0.000000 0.000000
        CHANNELS 3 Zrotation Xrotation Yrotation
        JOINT RightLeg
        {
            OFFSET -0.000000 -31.874865 0.000000
            CHANNELS 3 Zrotation Xrotation Yrotation
            JOINT RightFoot
            {
                OFFSET -0.000000 -38.221939 0.000000
                CHANNELS 3 Zrotation Xrotation Yrotation
                JOINT RightToeBase
                {
                    OFFSET -0.000000 -5.543335 12.792312
                    CHANNELS 3 Zrotation Xrotation Yrotation
                    End Site
                    {
                        OFFSET -0.000000 0.000000 3.411283
                    }
                }
            }
        }
    }
}
MOTION
Frames:    9
Frame Time:    0.008333
-30.058861    75.401543    37.635273    1.491967    2.160329    90.077560    0.173915    -3.513157    2.756835    -5.708918    9.388458    3.220690    5.968319    8.435070    -0.439398    -1.912787    3.726377    -1.103945    6.638909    10.922667    -3.329891    -76.496231    53.005150    1.152423    3.791592    -14.895237    -31.157984    2.262732    -13.863085    0.412403    10.224979    7.183134    -3.039633    25.738531    50.476936    29.902475    -7.724994    -11.528461    31.871300    -1.039983    -9.305708    -5.543399    -6.637300    -36.033047    -6.527329    -0.663208    53.347603    20.497978    -12.198782    8.341190    -3.587341    0.000000    0.000000    0.000000    -4.945821    0.404618    0.542197    9.088870    15.384937    2.958353    -7.897290    -12.975354    -6.755794    0.000000    0.000000    0.000000    
-29.247293    75.361183    37.612953    1.245395    2.212993    89.739044    0.320714    -3.734336    2.800493    -5.924973    9.475942    3.281553    5.678517    8.423172    -0.331585    -1.816217    3.499697    -0.964031    6.417733    10.863173    -3.150308    -76.658554    52.744072    1.571594    3.637886    -14.875677    -31.247644    2.571515    -13.880948    0.415444    9.946389    7.142901    -2.694510    25.526691    49.942516    30.369574    -7.923805    -11.490140    32.181347    -1.103877    -9.187002    -5.309619    -6.623764    -36.499699    -6.492577    -0.701939    50.779678    20.742321    -12.605824    8.638201    -3.357897    0.000000    0.000000    0.000000    -5.013984    0.983046    0.508068    8.990944    15.026914    3.754623    -8.241861    -13.267586    -7.400434    0.000000    0.000000    0.000000    
-28.399462    75.315224    37.621422    1.093439    2.239131    89.532829    0.306805    -3.887646    2.866131    -5.940773    9.488872    3.349213    5.602449    8.459211    -0.284698    -1.898747    3.441329    -0.918046    6.323694    10.906954    -3.164142    -76.855888    52.605679    1.904358    3.670296    -14.935666    -31.243837    2.318340    -13.933203    0.426047    9.803671    7.072030    -2.493664    25.335245    49.344284    30.690125    -7.959053    -11.405502    32.430679    -1.145662    -9.072346    -5.190659    -6.559567    -36.715466    -6.471767    -0.631853    48.054939    20.340872    -12.635318    8.486845    -3.300839    0.000000    0.000000    0.000000    -5.038090    1.677620    0.375068    8.932117    14.693840    4.101276    -8.318343    -13.516322    -7.278180    0.000000    0.000000    0.000000    
-27.542650    75.236954    37.601723    0.871799    2.304890    89.345757    0.288355    -4.212509    2.916888    -5.898024    9.761628    3.410380    5.502753    8.179094    -0.163313    -2.164589    3.553476    -0.826601    6.077869    10.834476    -3.155230    -76.912331    52.447884    2.180407    3.575913    -14.989230    -31.264124    2.322190    -14.010000    0.526123    9.545647    6.956302    -2.526316    24.638346    49.325825    31.515902    -8.529984    -11.706844    32.682568    -0.743901    -9.211975    -4.723433    -6.582489    -36.977039    -6.531235    -0.616795    45.303925    19.834620    -13.016831    8.234700    -2.963408    0.000000    0.000000    0.000000    -5.161193    2.341982    0.211543    8.934533    14.308468    4.293621    -8.444741    -13.910192    -7.168747    0.000000    0.000000    0.000000    
-26.725826    75.147888    37.586712    0.595791    2.309262    89.031929    0.429473    -4.553554    3.120593    -6.181900    9.960573    3.642726    5.267279    8.177769    -0.241831    -1.615670    3.256449    -0.833155    6.464529    10.851509    -3.237533    -77.138596    52.370281    2.110719    3.516642    -15.017798    -31.190363    2.434311    -14.054195    0.646527    9.476526    6.858194    -2.642866    23.865080    49.083069    32.294613    -8.487432    -11.732121    33.155834    -1.197358    -9.192770    -4.812222    -6.422080    -37.169678    -6.373471    -0.514538    42.442089    19.189980    -13.267418    7.959424    -2.801231    0.000000    0.000000    0.000000    -5.245251    2.765450    0.145886    8.970491    14.192270    4.793157    -8.422718    -14.350689    -7.317633    0.000000    0.000000    0.000000    
-25.865782    75.043182    37.599998    0.374816    2.274236    88.789833    0.431600    -4.851717    3.167315    -6.090018    10.178297    3.691897    5.361806    7.750962    -0.199153    -2.202679    3.654426    -0.876571    6.247641    10.778283    -3.071339    -77.185791    52.427471    2.394970    3.465803    -15.089435    -31.292213    2.636707    -14.133082    0.758223    9.239882    6.769434    -2.490145    23.793905    48.603596    32.613091    -8.828623    -11.648495    33.393635    -0.614529    -9.014874    -4.258266    -6.240218    -37.249870    -6.183868    -0.271984    39.482944    17.968548    -13.395676    7.694373    -2.341805    0.000000    0.000000    0.000000    -5.233697    3.326017    0.109407    8.949471    14.008612    5.334087    -8.459332    -14.688218    -7.643106    0.000000    0.000000    0.000000    
-24.999300    74.915848    37.589573    0.131927    2.259236    88.483032    0.605268    -4.997811    3.184733    -6.269592    10.072152    3.711347    5.127903    7.758338    0.000271    -2.175628    3.535607    -0.649325    6.007246    10.686016    -2.898153    -77.401115    52.294247    2.954131    3.463136    -15.138526    -31.228024    2.438765    -14.186954    0.732555    9.044621    6.846610    -2.159639    23.668480    48.132076    32.948544    -8.943744    -11.623185    33.712833    -1.301715    -8.898801    -4.620689    -6.138512    -37.242195    -5.827894    0.280332    36.453571    16.749825    -13.943228    7.374216    -2.073047    0.000000    0.000000    0.000000    -5.296244    3.832466    0.042326    8.950864    13.831444    5.455154    -8.515810    -15.153455    -7.425514    0.000000    0.000000    0.000000    
-24.138849    74.784264    37.598465    -0.163885    2.207142    88.192596    0.680104    -5.307159    3.319246    -6.376276    10.152184    3.854666    5.104998    7.585742    0.053414    -2.110245    3.627137    -0.591296    6.133179    10.511292    -3.006519    -77.840675    51.932388    3.351211    3.486452    -15.003894    -31.089922    2.605117    -14.048271    0.754976    9.011855    6.749369    -2.092522    23.342560    47.807896    33.270420    -8.814969    -11.740594    34.105377    -1.176713    -9.033498    -4.110141    -5.943404    -37.252563    -5.483438    0.666773    33.441566    15.812361    -14.961663    7.338204    -1.672053    0.000000    0.000000    0.000000    -5.305515    4.288348    -0.082866    8.934768    13.677141    5.750009    -8.611884    -15.562878    -7.330571    0.000000    0.000000    0.000000    
-23.278961    74.640297    37.606262    -0.465273    2.127961    87.919052    0.687776    -5.664766    3.455315    -6.220804    10.317343    3.983443    4.875237    7.407319    0.058919    -2.018081    3.662026    -0.563971    5.975014    10.611023    -2.908174    -77.529770    51.909599    3.089621    3.487724    -14.970391    -30.875549    2.123470    -14.028507    0.514845    8.793353    6.765272    -2.057332    22.940102    47.563404    33.714340    -9.066037    -11.841308    34.497433    -1.724306    -9.001135    -4.401138    -5.806456    -37.247761    -5.152169    1.170096    30.522266    14.988070    -15.693009    7.068796    -1.246512    0.000000    0.000000    0.000000    -5.294246    4.760863    0.114547    9.002063    13.431383    5.522429    -8.655732    -15.914993    -7.068520    0.000000    0.000000    0.000000    
